<?xml version="1.0" encoding="UTF-8" standalone="no"?>
<!-- Created with CurveBenchmark -->
<svg
	xmlns:dc="http://purl.org/dc/elements/1.1/"
	xmlns:cc="http://creativecommons.org/ns#"
	xmlns:rdf="http://www.w3.org/1999/02/22-rdf-syntax-ns#"
	xmlns:svg="http://www.w3.org/2000/svg"
	xmlns="http://www.w3.org/2000/svg"
	xmlns:sodipodi="http://sodipodi.sourceforge.net/DTD/sodipodi-0.dtd"
	xmlns:inkscape="http://www.inkscape.org/namespaces/inkscape"
	width="1000"
	height="1000"
	id="svg2"
	version="1.1"
	sodipodi:docname="mc5">
<defs
	id="defs4" />
<metadata
	id="metadata7">
	<rdf:RDF>
		<cc:Work
			rdf:about="">
			<dc:format>image/svg+xml</dc:format>
			<dc:type
				rdf:resource="http://purl.org/dc/dcmitype/StillImage" />
			<dc:title></dc:title>
		</cc:Work>
	</rdf:RDF>
</metadata>
<g
	inkscape:label="Layer 1"
	inkscape:groupmode="layer"
	id="layer1">
	<path style="fill:none;stroke:#000000;stroke-width:1px;stroke-linecap:butt;stroke-linejoin:miter;stroke-opacity:1" d="M 248.82,388.718 252,417.331 z" id="boundary" inkscape:connector-curvature="0" />
	<path style="fill:none;stroke:#000000;stroke-width:1px;stroke-linecap:butt;stroke-linejoin:miter;stroke-opacity:1" d="M 252,417.331 258.359,449.127 z" id="boundary" inkscape:connector-curvature="0" />
	<path style="fill:none;stroke:#000000;stroke-width:1px;stroke-linecap:butt;stroke-linejoin:miter;stroke-opacity:1" d="M 248.82,388.718 213.849,369.641 z" id="boundary" inkscape:connector-curvature="0" />
	<path style="fill:none;stroke:#000000;stroke-width:1px;stroke-linecap:butt;stroke-linejoin:miter;stroke-opacity:1" d="M 213.849,369.641 175.694,363.282 z" id="boundary" inkscape:connector-curvature="0" />
	<path style="fill:none;stroke:#000000;stroke-width:1px;stroke-linecap:butt;stroke-linejoin:miter;stroke-opacity:1" d="M 175.694,363.282 140.718,379.18 z" id="boundary" inkscape:connector-curvature="0" />
	<path style="fill:none;stroke:#000000;stroke-width:1px;stroke-linecap:butt;stroke-linejoin:miter;stroke-opacity:1" d="M 140.718,379.18 128,414.151 z" id="boundary" inkscape:connector-curvature="0" />
	<path style="fill:none;stroke:#000000;stroke-width:1px;stroke-linecap:butt;stroke-linejoin:miter;stroke-opacity:1" d="M 128,414.151 128,452.306 z" id="boundary" inkscape:connector-curvature="0" />
	<path style="fill:none;stroke:#000000;stroke-width:1px;stroke-linecap:butt;stroke-linejoin:miter;stroke-opacity:1" d="M 128,452.306 143.898,490.461 z" id="boundary" inkscape:connector-curvature="0" />
	<path style="fill:none;stroke:#000000;stroke-width:1px;stroke-linecap:butt;stroke-linejoin:miter;stroke-opacity:1" d="M 143.898,490.461 162.975,515.898 z" id="boundary" inkscape:connector-curvature="0" />
	<path style="fill:none;stroke:#000000;stroke-width:1px;stroke-linecap:butt;stroke-linejoin:miter;stroke-opacity:1" d="M 162.975,515.898 185.232,538.151 z" id="boundary" inkscape:connector-curvature="0" />
	<path style="fill:none;stroke:#000000;stroke-width:1px;stroke-linecap:butt;stroke-linejoin:miter;stroke-opacity:1" d="M 185.232,538.151 207.489,566.768 z" id="boundary" inkscape:connector-curvature="0" />
	<path style="fill:none;stroke:#000000;stroke-width:1px;stroke-linecap:butt;stroke-linejoin:miter;stroke-opacity:1" d="M 207.489,566.768 239.282,592.204 z" id="boundary" inkscape:connector-curvature="0" />
	<path style="fill:none;stroke:#000000;stroke-width:1px;stroke-linecap:butt;stroke-linejoin:miter;stroke-opacity:1" d="M 239.282,592.204 274.257,604.923 z" id="boundary" inkscape:connector-curvature="0" />
	<path style="fill:none;stroke:#000000;stroke-width:1px;stroke-linecap:butt;stroke-linejoin:miter;stroke-opacity:1" d="M 274.257,604.923 283.796,569.947 z" id="boundary" inkscape:connector-curvature="0" />
	<path style="fill:none;stroke:#000000;stroke-width:1px;stroke-linecap:butt;stroke-linejoin:miter;stroke-opacity:1" d="M 258.359,449.127 261.539,490.461 z" id="boundary" inkscape:connector-curvature="0" />
	<path style="fill:none;stroke:#000000;stroke-width:1px;stroke-linecap:butt;stroke-linejoin:miter;stroke-opacity:1" d="M 261.539,490.461 271.077,528.613 z" id="boundary" inkscape:connector-curvature="0" />
	<path style="fill:none;stroke:#000000;stroke-width:1px;stroke-linecap:butt;stroke-linejoin:miter;stroke-opacity:1" d="M 283.796,569.947 271.077,528.613 z" id="boundary" inkscape:connector-curvature="0" />
	<path style="fill:none;stroke:#000000;stroke-width:1px;stroke-linecap:butt;stroke-linejoin:miter;stroke-opacity:1" d="M 674.87,4 643.077,4 z" id="boundary" inkscape:connector-curvature="0" />
	<path style="fill:none;stroke:#000000;stroke-width:1px;stroke-linecap:butt;stroke-linejoin:miter;stroke-opacity:1" d="M 674.87,4 716.204,13.5387 z" id="boundary" inkscape:connector-curvature="0" />
	<path style="fill:none;stroke:#000000;stroke-width:1px;stroke-linecap:butt;stroke-linejoin:miter;stroke-opacity:1" d="M 643.077,4 598.563,7.17958 z" id="boundary" inkscape:connector-curvature="0" />
	<path style="fill:none;stroke:#000000;stroke-width:1px;stroke-linecap:butt;stroke-linejoin:miter;stroke-opacity:1" d="M 598.563,7.17958 554.049,7.17958 z" id="boundary" inkscape:connector-curvature="0" />
	<path style="fill:none;stroke:#000000;stroke-width:1px;stroke-linecap:butt;stroke-linejoin:miter;stroke-opacity:1" d="M 554.049,7.17958 509.539,7.17958 z" id="boundary" inkscape:connector-curvature="0" />
	<path style="fill:none;stroke:#000000;stroke-width:1px;stroke-linecap:butt;stroke-linejoin:miter;stroke-opacity:1" d="M 509.539,7.17958 471.384,10.3592 z" id="boundary" inkscape:connector-curvature="0" />
	<path style="fill:none;stroke:#000000;stroke-width:1px;stroke-linecap:butt;stroke-linejoin:miter;stroke-opacity:1" d="M 471.384,10.3592 423.694,13.5387 z" id="boundary" inkscape:connector-curvature="0" />
	<path style="fill:none;stroke:#000000;stroke-width:1px;stroke-linecap:butt;stroke-linejoin:miter;stroke-opacity:1" d="M 423.694,13.5387 385.539,16.7183 z" id="boundary" inkscape:connector-curvature="0" />
	<path style="fill:none;stroke:#000000;stroke-width:1px;stroke-linecap:butt;stroke-linejoin:miter;stroke-opacity:1" d="M 716.204,13.5387 763.898,19.8979 z" id="boundary" inkscape:connector-curvature="0" />
	<path style="fill:none;stroke:#000000;stroke-width:1px;stroke-linecap:butt;stroke-linejoin:miter;stroke-opacity:1" d="M 385.539,16.7183 337.845,26.257 z" id="boundary" inkscape:connector-curvature="0" />
	<path style="fill:none;stroke:#000000;stroke-width:1px;stroke-linecap:butt;stroke-linejoin:miter;stroke-opacity:1" d="M 337.845,26.257 302.873,38.9753 z" id="boundary" inkscape:connector-curvature="0" />
	<path style="fill:none;stroke:#000000;stroke-width:1px;stroke-linecap:butt;stroke-linejoin:miter;stroke-opacity:1" d="M 302.873,38.9753 264.718,64.4119 z" id="boundary" inkscape:connector-curvature="0" />
	<path style="fill:none;stroke:#000000;stroke-width:1px;stroke-linecap:butt;stroke-linejoin:miter;stroke-opacity:1" d="M 264.718,64.4119 245.641,102.563 z" id="boundary" inkscape:connector-curvature="0" />
	<path style="fill:none;stroke:#000000;stroke-width:1px;stroke-linecap:butt;stroke-linejoin:miter;stroke-opacity:1" d="M 245.641,102.563 245.641,150.257 z" id="boundary" inkscape:connector-curvature="0" />
	<path style="fill:none;stroke:#000000;stroke-width:1px;stroke-linecap:butt;stroke-linejoin:miter;stroke-opacity:1" d="M 245.641,150.257 242.461,191.588 z" id="boundary" inkscape:connector-curvature="0" />
	<path style="fill:none;stroke:#000000;stroke-width:1px;stroke-linecap:butt;stroke-linejoin:miter;stroke-opacity:1" d="M 242.461,191.588 232.923,223.384 z" id="boundary" inkscape:connector-curvature="0" />
	<path style="fill:none;stroke:#000000;stroke-width:1px;stroke-linecap:butt;stroke-linejoin:miter;stroke-opacity:1" d="M 232.923,223.384 201.13,226.563 z" id="boundary" inkscape:connector-curvature="0" />
	<path style="fill:none;stroke:#000000;stroke-width:1px;stroke-linecap:butt;stroke-linejoin:miter;stroke-opacity:1" d="M 201.13,226.563 159.796,236.102 z" id="boundary" inkscape:connector-curvature="0" />
	<path style="fill:none;stroke:#000000;stroke-width:1px;stroke-linecap:butt;stroke-linejoin:miter;stroke-opacity:1" d="M 159.796,236.102 121.641,245.641 z" id="boundary" inkscape:connector-curvature="0" />
	<path style="fill:none;stroke:#000000;stroke-width:1px;stroke-linecap:butt;stroke-linejoin:miter;stroke-opacity:1" d="M 121.641,245.641 83.4894,264.718 z" id="boundary" inkscape:connector-curvature="0" />
	<path style="fill:none;stroke:#000000;stroke-width:1px;stroke-linecap:butt;stroke-linejoin:miter;stroke-opacity:1" d="M 83.4894,264.718 54.8732,283.796 z" id="boundary" inkscape:connector-curvature="0" />
	<path style="fill:none;stroke:#000000;stroke-width:1px;stroke-linecap:butt;stroke-linejoin:miter;stroke-opacity:1" d="M 54.8732,283.796 32.6162,312.408 z" id="boundary" inkscape:connector-curvature="0" />
	<path style="fill:none;stroke:#000000;stroke-width:1px;stroke-linecap:butt;stroke-linejoin:miter;stroke-opacity:1" d="M 32.6162,312.408 19.8979,353.743 z" id="boundary" inkscape:connector-curvature="0" />
	<path style="fill:none;stroke:#000000;stroke-width:1px;stroke-linecap:butt;stroke-linejoin:miter;stroke-opacity:1" d="M 19.8979,353.743 7.17958,391.898 z" id="boundary" inkscape:connector-curvature="0" />
	<path style="fill:none;stroke:#000000;stroke-width:1px;stroke-linecap:butt;stroke-linejoin:miter;stroke-opacity:1" d="M 7.17958,391.898 4,426.87 z" id="boundary" inkscape:connector-curvature="0" />
	<path style="fill:none;stroke:#000000;stroke-width:1px;stroke-linecap:butt;stroke-linejoin:miter;stroke-opacity:1" d="M 4,426.87 7.17958,471.384 z" id="boundary" inkscape:connector-curvature="0" />
	<path style="fill:none;stroke:#000000;stroke-width:1px;stroke-linecap:butt;stroke-linejoin:miter;stroke-opacity:1" d="M 7.17958,471.384 16.7183,509.539 z" id="boundary" inkscape:connector-curvature="0" />
	<path style="fill:none;stroke:#000000;stroke-width:1px;stroke-linecap:butt;stroke-linejoin:miter;stroke-opacity:1" d="M 16.7183,509.539 32.6162,544.511 z" id="boundary" inkscape:connector-curvature="0" />
	<path style="fill:none;stroke:#000000;stroke-width:1px;stroke-linecap:butt;stroke-linejoin:miter;stroke-opacity:1" d="M 32.6162,544.511 48.5141,585.845 z" id="boundary" inkscape:connector-curvature="0" />
	<path style="fill:none;stroke:#000000;stroke-width:1px;stroke-linecap:butt;stroke-linejoin:miter;stroke-opacity:1" d="M 48.5141,585.845 67.5915,620.82 z" id="boundary" inkscape:connector-curvature="0" />
	<path style="fill:none;stroke:#000000;stroke-width:1px;stroke-linecap:butt;stroke-linejoin:miter;stroke-opacity:1" d="M 67.5915,620.82 96.2077,652.613 z" id="boundary" inkscape:connector-curvature="0" />
	<path style="fill:none;stroke:#000000;stroke-width:1px;stroke-linecap:butt;stroke-linejoin:miter;stroke-opacity:1" d="M 96.2077,652.613 124.82,678.049 z" id="boundary" inkscape:connector-curvature="0" />
	<path style="fill:none;stroke:#000000;stroke-width:1px;stroke-linecap:butt;stroke-linejoin:miter;stroke-opacity:1" d="M 124.82,678.049 162.975,700.306 z" id="boundary" inkscape:connector-curvature="0" />
	<path style="fill:none;stroke:#000000;stroke-width:1px;stroke-linecap:butt;stroke-linejoin:miter;stroke-opacity:1" d="M 162.975,700.306 201.13,719.384 z" id="boundary" inkscape:connector-curvature="0" />
	<path style="fill:none;stroke:#000000;stroke-width:1px;stroke-linecap:butt;stroke-linejoin:miter;stroke-opacity:1" d="M 201.13,719.384 239.282,732.102 z" id="boundary" inkscape:connector-curvature="0" />
	<path style="fill:none;stroke:#000000;stroke-width:1px;stroke-linecap:butt;stroke-linejoin:miter;stroke-opacity:1" d="M 239.282,732.102 277.437,751.176 z" id="boundary" inkscape:connector-curvature="0" />
	<path style="fill:none;stroke:#000000;stroke-width:1px;stroke-linecap:butt;stroke-linejoin:miter;stroke-opacity:1" d="M 277.437,751.176 318.771,779.792 z" id="boundary" inkscape:connector-curvature="0" />
	<path style="fill:none;stroke:#000000;stroke-width:1px;stroke-linecap:butt;stroke-linejoin:miter;stroke-opacity:1" d="M 318.771,779.792 353.743,811.588 z" id="boundary" inkscape:connector-curvature="0" />
	<path style="fill:none;stroke:#000000;stroke-width:1px;stroke-linecap:butt;stroke-linejoin:miter;stroke-opacity:1" d="M 353.743,811.588 372.82,843.384 z" id="boundary" inkscape:connector-curvature="0" />
	<path style="fill:none;stroke:#000000;stroke-width:1px;stroke-linecap:butt;stroke-linejoin:miter;stroke-opacity:1" d="M 372.82,843.384 382.359,884.715 z" id="boundary" inkscape:connector-curvature="0" />
	<path style="fill:none;stroke:#000000;stroke-width:1px;stroke-linecap:butt;stroke-linejoin:miter;stroke-opacity:1" d="M 382.359,884.715 401.437,919.69 z" id="boundary" inkscape:connector-curvature="0" />
	<path style="fill:none;stroke:#000000;stroke-width:1px;stroke-linecap:butt;stroke-linejoin:miter;stroke-opacity:1" d="M 401.437,919.69 436.412,938.768 z" id="boundary" inkscape:connector-curvature="0" />
	<path style="fill:none;stroke:#000000;stroke-width:1px;stroke-linecap:butt;stroke-linejoin:miter;stroke-opacity:1" d="M 436.412,938.768 474.563,951.486 z" id="boundary" inkscape:connector-curvature="0" />
	<path style="fill:none;stroke:#000000;stroke-width:1px;stroke-linecap:butt;stroke-linejoin:miter;stroke-opacity:1" d="M 474.563,951.486 515.898,961.025 z" id="boundary" inkscape:connector-curvature="0" />
	<path style="fill:none;stroke:#000000;stroke-width:1px;stroke-linecap:butt;stroke-linejoin:miter;stroke-opacity:1" d="M 515.898,961.025 566.768,964.204 z" id="boundary" inkscape:connector-curvature="0" />
	<path style="fill:none;stroke:#000000;stroke-width:1px;stroke-linecap:butt;stroke-linejoin:miter;stroke-opacity:1" d="M 566.768,964.204 608.102,970.56 z" id="boundary" inkscape:connector-curvature="0" />
	<path style="fill:none;stroke:#000000;stroke-width:1px;stroke-linecap:butt;stroke-linejoin:miter;stroke-opacity:1" d="M 608.102,970.56 662.155,973.74 z" id="boundary" inkscape:connector-curvature="0" />
	<path style="fill:none;stroke:#000000;stroke-width:1px;stroke-linecap:butt;stroke-linejoin:miter;stroke-opacity:1" d="M 662.155,973.74 709.845,964.204 z" id="boundary" inkscape:connector-curvature="0" />
	<path style="fill:none;stroke:#000000;stroke-width:1px;stroke-linecap:butt;stroke-linejoin:miter;stroke-opacity:1" d="M 709.845,964.204 744.82,948.306 z" id="boundary" inkscape:connector-curvature="0" />
	<path style="fill:none;stroke:#000000;stroke-width:1px;stroke-linecap:butt;stroke-linejoin:miter;stroke-opacity:1" d="M 744.82,948.306 773.437,910.151 z" id="boundary" inkscape:connector-curvature="0" />
	<path style="fill:none;stroke:#000000;stroke-width:1px;stroke-linecap:butt;stroke-linejoin:miter;stroke-opacity:1" d="M 773.437,910.151 792.511,871.997 z" id="boundary" inkscape:connector-curvature="0" />
	<path style="fill:none;stroke:#000000;stroke-width:1px;stroke-linecap:butt;stroke-linejoin:miter;stroke-opacity:1" d="M 792.511,871.997 811.588,840.204 z" id="boundary" inkscape:connector-curvature="0" />
	<path style="fill:none;stroke:#000000;stroke-width:1px;stroke-linecap:butt;stroke-linejoin:miter;stroke-opacity:1" d="M 811.588,840.204 824.306,805.229 z" id="boundary" inkscape:connector-curvature="0" />
	<path style="fill:none;stroke:#000000;stroke-width:1px;stroke-linecap:butt;stroke-linejoin:miter;stroke-opacity:1" d="M 824.306,805.229 846.563,770.254 z" id="boundary" inkscape:connector-curvature="0" />
	<path style="fill:none;stroke:#000000;stroke-width:1px;stroke-linecap:butt;stroke-linejoin:miter;stroke-opacity:1" d="M 846.563,770.254 859.282,735.282 z" id="boundary" inkscape:connector-curvature="0" />
	<path style="fill:none;stroke:#000000;stroke-width:1px;stroke-linecap:butt;stroke-linejoin:miter;stroke-opacity:1" d="M 859.282,735.282 878.359,697.127 z" id="boundary" inkscape:connector-curvature="0" />
	<path style="fill:none;stroke:#000000;stroke-width:1px;stroke-linecap:butt;stroke-linejoin:miter;stroke-opacity:1" d="M 878.359,697.127 894.254,652.613 z" id="boundary" inkscape:connector-curvature="0" />
	<path style="fill:none;stroke:#000000;stroke-width:1px;stroke-linecap:butt;stroke-linejoin:miter;stroke-opacity:1" d="M 894.254,652.613 910.151,608.102 z" id="boundary" inkscape:connector-curvature="0" />
	<path style="fill:none;stroke:#000000;stroke-width:1px;stroke-linecap:butt;stroke-linejoin:miter;stroke-opacity:1" d="M 910.151,608.102 926.049,563.588 z" id="boundary" inkscape:connector-curvature="0" />
	<path style="fill:none;stroke:#000000;stroke-width:1px;stroke-linecap:butt;stroke-linejoin:miter;stroke-opacity:1" d="M 926.049,563.588 938.768,512.718 z" id="boundary" inkscape:connector-curvature="0" />
	<path style="fill:none;stroke:#000000;stroke-width:1px;stroke-linecap:butt;stroke-linejoin:miter;stroke-opacity:1" d="M 938.768,512.718 951.486,461.845 z" id="boundary" inkscape:connector-curvature="0" />
	<path style="fill:none;stroke:#000000;stroke-width:1px;stroke-linecap:butt;stroke-linejoin:miter;stroke-opacity:1" d="M 951.486,461.845 964.204,410.972 z" id="boundary" inkscape:connector-curvature="0" />
	<path style="fill:none;stroke:#000000;stroke-width:1px;stroke-linecap:butt;stroke-linejoin:miter;stroke-opacity:1" d="M 964.204,410.972 973.743,366.461 z" id="boundary" inkscape:connector-curvature="0" />
	<path style="fill:none;stroke:#000000;stroke-width:1px;stroke-linecap:butt;stroke-linejoin:miter;stroke-opacity:1" d="M 973.743,366.461 976.923,318.768 z" id="boundary" inkscape:connector-curvature="0" />
	<path style="fill:none;stroke:#000000;stroke-width:1px;stroke-linecap:butt;stroke-linejoin:miter;stroke-opacity:1" d="M 976.923,318.768 976.923,274.257 z" id="boundary" inkscape:connector-curvature="0" />
	<path style="fill:none;stroke:#000000;stroke-width:1px;stroke-linecap:butt;stroke-linejoin:miter;stroke-opacity:1" d="M 976.923,274.257 986.461,236.102 z" id="boundary" inkscape:connector-curvature="0" />
	<path style="fill:none;stroke:#000000;stroke-width:1px;stroke-linecap:butt;stroke-linejoin:miter;stroke-opacity:1" d="M 986.461,236.102 992.82,191.588 z" id="boundary" inkscape:connector-curvature="0" />
	<path style="fill:none;stroke:#000000;stroke-width:1px;stroke-linecap:butt;stroke-linejoin:miter;stroke-opacity:1" d="M 992.82,191.588 996,159.796 z" id="boundary" inkscape:connector-curvature="0" />
	<path style="fill:none;stroke:#000000;stroke-width:1px;stroke-linecap:butt;stroke-linejoin:miter;stroke-opacity:1" d="M 996,159.796 992.82,115.282 z" id="boundary" inkscape:connector-curvature="0" />
	<path style="fill:none;stroke:#000000;stroke-width:1px;stroke-linecap:butt;stroke-linejoin:miter;stroke-opacity:1" d="M 992.82,115.282 961.025,80.3064 z" id="boundary" inkscape:connector-curvature="0" />
	<path style="fill:none;stroke:#000000;stroke-width:1px;stroke-linecap:butt;stroke-linejoin:miter;stroke-opacity:1" d="M 961.025,80.3064 916.511,54.8732 z" id="boundary" inkscape:connector-curvature="0" />
	<path style="fill:none;stroke:#000000;stroke-width:1px;stroke-linecap:butt;stroke-linejoin:miter;stroke-opacity:1" d="M 916.511,54.8732 872,38.9753 z" id="boundary" inkscape:connector-curvature="0" />
	<path style="fill:none;stroke:#000000;stroke-width:1px;stroke-linecap:butt;stroke-linejoin:miter;stroke-opacity:1" d="M 763.898,19.8979 817.947,26.257 z" id="boundary" inkscape:connector-curvature="0" />
	<path style="fill:none;stroke:#000000;stroke-width:1px;stroke-linecap:butt;stroke-linejoin:miter;stroke-opacity:1" d="M 817.947,26.257 872,38.9753 z" id="boundary" inkscape:connector-curvature="0" />
	<circle cx="248.82" cy="388.718" r="4" fill="#0" id="circle0"/>
	<circle cx="213.849" cy="369.641" r="4" fill="#0" id="circle1"/>
	<circle cx="175.694" cy="363.282" r="4" fill="#0" id="circle2"/>
	<circle cx="140.718" cy="379.18" r="4" fill="#0" id="circle3"/>
	<circle cx="128" cy="414.151" r="4" fill="#0" id="circle4"/>
	<circle cx="128" cy="452.306" r="4" fill="#0" id="circle5"/>
	<circle cx="143.898" cy="490.461" r="4" fill="#0" id="circle6"/>
	<circle cx="162.975" cy="515.898" r="4" fill="#0" id="circle7"/>
	<circle cx="185.232" cy="538.151" r="4" fill="#0" id="circle8"/>
	<circle cx="207.489" cy="566.768" r="4" fill="#0" id="circle9"/>
	<circle cx="239.282" cy="592.204" r="4" fill="#0" id="circle10"/>
	<circle cx="274.257" cy="604.923" r="4" fill="#0" id="circle11"/>
	<circle cx="283.796" cy="569.947" r="4" fill="#0" id="circle12"/>
	<circle cx="271.077" cy="528.613" r="4" fill="#0" id="circle13"/>
	<circle cx="261.539" cy="490.461" r="4" fill="#0" id="circle14"/>
	<circle cx="258.359" cy="449.127" r="4" fill="#0" id="circle15"/>
	<circle cx="252" cy="417.331" r="4" fill="#0" id="circle16"/>
	<circle cx="232.923" cy="223.384" r="4" fill="#0" id="circle17"/>
	<circle cx="201.13" cy="226.563" r="4" fill="#0" id="circle18"/>
	<circle cx="159.796" cy="236.102" r="4" fill="#0" id="circle19"/>
	<circle cx="121.641" cy="245.641" r="4" fill="#0" id="circle20"/>
	<circle cx="83.4894" cy="264.718" r="4" fill="#0" id="circle21"/>
	<circle cx="54.8732" cy="283.796" r="4" fill="#0" id="circle22"/>
	<circle cx="32.6162" cy="312.408" r="4" fill="#0" id="circle23"/>
	<circle cx="19.8979" cy="353.743" r="4" fill="#0" id="circle24"/>
	<circle cx="7.17958" cy="391.898" r="4" fill="#0" id="circle25"/>
	<circle cx="4" cy="426.87" r="4" fill="#0" id="circle26"/>
	<circle cx="7.17958" cy="471.384" r="4" fill="#0" id="circle27"/>
	<circle cx="16.7183" cy="509.539" r="4" fill="#0" id="circle28"/>
	<circle cx="32.6162" cy="544.511" r="4" fill="#0" id="circle29"/>
	<circle cx="48.5141" cy="585.845" r="4" fill="#0" id="circle30"/>
	<circle cx="67.5915" cy="620.82" r="4" fill="#0" id="circle31"/>
	<circle cx="96.2077" cy="652.613" r="4" fill="#0" id="circle32"/>
	<circle cx="124.82" cy="678.049" r="4" fill="#0" id="circle33"/>
	<circle cx="162.975" cy="700.306" r="4" fill="#0" id="circle34"/>
	<circle cx="201.13" cy="719.384" r="4" fill="#0" id="circle35"/>
	<circle cx="239.282" cy="732.102" r="4" fill="#0" id="circle36"/>
	<circle cx="277.437" cy="751.176" r="4" fill="#0" id="circle37"/>
	<circle cx="318.771" cy="779.792" r="4" fill="#0" id="circle38"/>
	<circle cx="353.743" cy="811.588" r="4" fill="#0" id="circle39"/>
	<circle cx="372.82" cy="843.384" r="4" fill="#0" id="circle40"/>
	<circle cx="382.359" cy="884.715" r="4" fill="#0" id="circle41"/>
	<circle cx="401.437" cy="919.69" r="4" fill="#0" id="circle42"/>
	<circle cx="436.412" cy="938.768" r="4" fill="#0" id="circle43"/>
	<circle cx="474.563" cy="951.486" r="4" fill="#0" id="circle44"/>
	<circle cx="515.898" cy="961.025" r="4" fill="#0" id="circle45"/>
	<circle cx="566.768" cy="964.204" r="4" fill="#0" id="circle46"/>
	<circle cx="608.102" cy="970.56" r="4" fill="#0" id="circle47"/>
	<circle cx="662.155" cy="973.74" r="4" fill="#0" id="circle48"/>
	<circle cx="709.845" cy="964.204" r="4" fill="#0" id="circle49"/>
	<circle cx="744.82" cy="948.306" r="4" fill="#0" id="circle50"/>
	<circle cx="242.461" cy="191.588" r="4" fill="#0" id="circle51"/>
	<circle cx="245.641" cy="150.257" r="4" fill="#0" id="circle52"/>
	<circle cx="245.641" cy="102.563" r="4" fill="#0" id="circle53"/>
	<circle cx="264.718" cy="64.4119" r="4" fill="#0" id="circle54"/>
	<circle cx="302.873" cy="38.9753" r="4" fill="#0" id="circle55"/>
	<circle cx="337.845" cy="26.257" r="4" fill="#0" id="circle56"/>
	<circle cx="385.539" cy="16.7183" r="4" fill="#0" id="circle57"/>
	<circle cx="423.694" cy="13.5387" r="4" fill="#0" id="circle58"/>
	<circle cx="471.384" cy="10.3592" r="4" fill="#0" id="circle59"/>
	<circle cx="509.539" cy="7.17958" r="4" fill="#0" id="circle60"/>
	<circle cx="554.049" cy="7.17958" r="4" fill="#0" id="circle61"/>
	<circle cx="598.563" cy="7.17958" r="4" fill="#0" id="circle62"/>
	<circle cx="643.077" cy="4" r="4" fill="#0" id="circle63"/>
	<circle cx="674.87" cy="4" r="4" fill="#0" id="circle64"/>
	<circle cx="716.204" cy="13.5387" r="4" fill="#0" id="circle65"/>
	<circle cx="763.898" cy="19.8979" r="4" fill="#0" id="circle66"/>
	<circle cx="817.947" cy="26.257" r="4" fill="#0" id="circle67"/>
	<circle cx="872" cy="38.9753" r="4" fill="#0" id="circle68"/>
	<circle cx="916.511" cy="54.8732" r="4" fill="#0" id="circle69"/>
	<circle cx="961.025" cy="80.3064" r="4" fill="#0" id="circle70"/>
	<circle cx="992.82" cy="115.282" r="4" fill="#0" id="circle71"/>
	<circle cx="996" cy="159.796" r="4" fill="#0" id="circle72"/>
	<circle cx="992.82" cy="191.588" r="4" fill="#0" id="circle73"/>
	<circle cx="986.461" cy="236.102" r="4" fill="#0" id="circle74"/>
	<circle cx="976.923" cy="274.257" r="4" fill="#0" id="circle75"/>
	<circle cx="976.923" cy="318.768" r="4" fill="#0" id="circle76"/>
	<circle cx="973.743" cy="366.461" r="4" fill="#0" id="circle77"/>
	<circle cx="964.204" cy="410.972" r="4" fill="#0" id="circle78"/>
	<circle cx="951.486" cy="461.845" r="4" fill="#0" id="circle79"/>
	<circle cx="938.768" cy="512.718" r="4" fill="#0" id="circle80"/>
	<circle cx="926.049" cy="563.588" r="4" fill="#0" id="circle81"/>
	<circle cx="910.151" cy="608.102" r="4" fill="#0" id="circle82"/>
	<circle cx="894.254" cy="652.613" r="4" fill="#0" id="circle83"/>
	<circle cx="878.359" cy="697.127" r="4" fill="#0" id="circle84"/>
	<circle cx="859.282" cy="735.282" r="4" fill="#0" id="circle85"/>
	<circle cx="846.563" cy="770.254" r="4" fill="#0" id="circle86"/>
	<circle cx="824.306" cy="805.229" r="4" fill="#0" id="circle87"/>
	<circle cx="811.588" cy="840.204" r="4" fill="#0" id="circle88"/>
	<circle cx="792.511" cy="871.997" r="4" fill="#0" id="circle89"/>
	<circle cx="773.437" cy="910.151" r="4" fill="#0" id="circle90"/>
	</g>
</svg>