<?xml version="1.0" encoding="UTF-8" standalone="no"?>
<!-- Created with CurveBenchmark -->
<svg
	xmlns:dc="http://purl.org/dc/elements/1.1/"
	xmlns:cc="http://creativecommons.org/ns#"
	xmlns:rdf="http://www.w3.org/1999/02/22-rdf-syntax-ns#"
	xmlns:svg="http://www.w3.org/2000/svg"
	xmlns="http://www.w3.org/2000/svg"
	xmlns:sodipodi="http://sodipodi.sourceforge.net/DTD/sodipodi-0.dtd"
	xmlns:inkscape="http://www.inkscape.org/namespaces/inkscape"
	width="1000"
	height="1000"
	id="svg2"
	version="1.1"
	sodipodi:docname="mc3">
<defs
	id="defs4" />
<metadata
	id="metadata7">
	<rdf:RDF>
		<cc:Work
			rdf:about="">
			<dc:format>image/svg+xml</dc:format>
			<dc:type
				rdf:resource="http://purl.org/dc/dcmitype/StillImage" />
			<dc:title></dc:title>
		</cc:Work>
	</rdf:RDF>
</metadata>
<g
	inkscape:label="Layer 1"
	inkscape:groupmode="layer"
	id="layer1">
	<path style="fill:none;stroke:#000000;stroke-width:1px;stroke-linecap:butt;stroke-linejoin:miter;stroke-opacity:1" d="M 695.234,811.319 725.135,816.596 z" id="boundary" inkscape:connector-curvature="0" />
	<path style="fill:none;stroke:#000000;stroke-width:1px;stroke-linecap:butt;stroke-linejoin:miter;stroke-opacity:1" d="M 695.234,811.319 663.574,793.73 z" id="boundary" inkscape:connector-curvature="0" />
	<path style="fill:none;stroke:#000000;stroke-width:1px;stroke-linecap:butt;stroke-linejoin:miter;stroke-opacity:1" d="M 725.135,816.596 762.071,813.078 z" id="boundary" inkscape:connector-curvature="0" />
	<path style="fill:none;stroke:#000000;stroke-width:1px;stroke-linecap:butt;stroke-linejoin:miter;stroke-opacity:1" d="M 762.071,813.078 791.972,799.007 z" id="boundary" inkscape:connector-curvature="0" />
	<path style="fill:none;stroke:#000000;stroke-width:1px;stroke-linecap:butt;stroke-linejoin:miter;stroke-opacity:1" d="M 791.972,799.007 825.39,770.865 z" id="boundary" inkscape:connector-curvature="0" />
	<path style="fill:none;stroke:#000000;stroke-width:1px;stroke-linecap:butt;stroke-linejoin:miter;stroke-opacity:1" d="M 825.39,770.865 855.291,735.688 z" id="boundary" inkscape:connector-curvature="0" />
	<path style="fill:none;stroke:#000000;stroke-width:1px;stroke-linecap:butt;stroke-linejoin:miter;stroke-opacity:1" d="M 855.291,735.688 883.433,704.028 z" id="boundary" inkscape:connector-curvature="0" />
	<path style="fill:none;stroke:#000000;stroke-width:1px;stroke-linecap:butt;stroke-linejoin:miter;stroke-opacity:1" d="M 883.433,704.028 906.298,667.092 z" id="boundary" inkscape:connector-curvature="0" />
	<path style="fill:none;stroke:#000000;stroke-width:1px;stroke-linecap:butt;stroke-linejoin:miter;stroke-opacity:1" d="M 906.298,667.092 927.404,631.915 z" id="boundary" inkscape:connector-curvature="0" />
	<path style="fill:none;stroke:#000000;stroke-width:1px;stroke-linecap:butt;stroke-linejoin:miter;stroke-opacity:1" d="M 927.404,631.915 941.475,594.979 z" id="boundary" inkscape:connector-curvature="0" />
	<path style="fill:none;stroke:#000000;stroke-width:1px;stroke-linecap:butt;stroke-linejoin:miter;stroke-opacity:1" d="M 941.475,594.979 957.305,556.284 z" id="boundary" inkscape:connector-curvature="0" />
	<path style="fill:none;stroke:#000000;stroke-width:1px;stroke-linecap:butt;stroke-linejoin:miter;stroke-opacity:1" d="M 957.305,556.284 962.582,521.106 z" id="boundary" inkscape:connector-curvature="0" />
	<path style="fill:none;stroke:#000000;stroke-width:1px;stroke-linecap:butt;stroke-linejoin:miter;stroke-opacity:1" d="M 663.574,793.73 630.156,756.794 z" id="boundary" inkscape:connector-curvature="0" />
	<path style="fill:none;stroke:#000000;stroke-width:1px;stroke-linecap:butt;stroke-linejoin:miter;stroke-opacity:1" d="M 630.156,756.794 614.326,723.376 z" id="boundary" inkscape:connector-curvature="0" />
	<path style="fill:none;stroke:#000000;stroke-width:1px;stroke-linecap:butt;stroke-linejoin:miter;stroke-opacity:1" d="M 614.326,723.376 600.255,688.199 z" id="boundary" inkscape:connector-curvature="0" />
	<path style="fill:none;stroke:#000000;stroke-width:1px;stroke-linecap:butt;stroke-linejoin:miter;stroke-opacity:1" d="M 600.255,688.199 594.979,647.745 z" id="boundary" inkscape:connector-curvature="0" />
	<path style="fill:none;stroke:#000000;stroke-width:1px;stroke-linecap:butt;stroke-linejoin:miter;stroke-opacity:1" d="M 594.979,647.745 598.496,603.773 z" id="boundary" inkscape:connector-curvature="0" />
	<path style="fill:none;stroke:#000000;stroke-width:1px;stroke-linecap:butt;stroke-linejoin:miter;stroke-opacity:1" d="M 598.496,603.773 605.532,568.596 z" id="boundary" inkscape:connector-curvature="0" />
	<path style="fill:none;stroke:#000000;stroke-width:1px;stroke-linecap:butt;stroke-linejoin:miter;stroke-opacity:1" d="M 605.532,568.596 614.326,529.901 z" id="boundary" inkscape:connector-curvature="0" />
	<path style="fill:none;stroke:#000000;stroke-width:1px;stroke-linecap:butt;stroke-linejoin:miter;stroke-opacity:1" d="M 614.326,529.901 628.397,496.482 z" id="boundary" inkscape:connector-curvature="0" />
	<path style="fill:none;stroke:#000000;stroke-width:1px;stroke-linecap:butt;stroke-linejoin:miter;stroke-opacity:1" d="M 628.397,496.482 637.191,450.752 z" id="boundary" inkscape:connector-curvature="0" />
	<path style="fill:none;stroke:#000000;stroke-width:1px;stroke-linecap:butt;stroke-linejoin:miter;stroke-opacity:1" d="M 637.191,450.752 642.468,390.95 z" id="boundary" inkscape:connector-curvature="0" />
	<path style="fill:none;stroke:#000000;stroke-width:1px;stroke-linecap:butt;stroke-linejoin:miter;stroke-opacity:1" d="M 642.468,390.95 638.95,336.426 z" id="boundary" inkscape:connector-curvature="0" />
	<path style="fill:none;stroke:#000000;stroke-width:1px;stroke-linecap:butt;stroke-linejoin:miter;stroke-opacity:1" d="M 638.95,336.426 635.433,290.695 z" id="boundary" inkscape:connector-curvature="0" />
	<path style="fill:none;stroke:#000000;stroke-width:1px;stroke-linecap:butt;stroke-linejoin:miter;stroke-opacity:1" d="M 635.433,290.695 630.156,252 z" id="boundary" inkscape:connector-curvature="0" />
	<path style="fill:none;stroke:#000000;stroke-width:1px;stroke-linecap:butt;stroke-linejoin:miter;stroke-opacity:1" d="M 630.156,252 623.121,209.787 z" id="boundary" inkscape:connector-curvature="0" />
	<path style="fill:none;stroke:#000000;stroke-width:1px;stroke-linecap:butt;stroke-linejoin:miter;stroke-opacity:1" d="M 623.121,209.787 616.085,176.369 z" id="boundary" inkscape:connector-curvature="0" />
	<path style="fill:none;stroke:#000000;stroke-width:1px;stroke-linecap:butt;stroke-linejoin:miter;stroke-opacity:1" d="M 616.085,176.369 609.05,142.95 z" id="boundary" inkscape:connector-curvature="0" />
	<path style="fill:none;stroke:#000000;stroke-width:1px;stroke-linecap:butt;stroke-linejoin:miter;stroke-opacity:1" d="M 609.05,142.95 607.291,102.496 z" id="boundary" inkscape:connector-curvature="0" />
	<path style="fill:none;stroke:#000000;stroke-width:1px;stroke-linecap:butt;stroke-linejoin:miter;stroke-opacity:1" d="M 607.291,102.496 617.844,62.0426 z" id="boundary" inkscape:connector-curvature="0" />
	<path style="fill:none;stroke:#000000;stroke-width:1px;stroke-linecap:butt;stroke-linejoin:miter;stroke-opacity:1" d="M 617.844,62.0426 642.468,26.8652 z" id="boundary" inkscape:connector-curvature="0" />
	<path style="fill:none;stroke:#000000;stroke-width:1px;stroke-linecap:butt;stroke-linejoin:miter;stroke-opacity:1" d="M 642.468,26.8652 675.887,11.0355 z" id="boundary" inkscape:connector-curvature="0" />
	<path style="fill:none;stroke:#000000;stroke-width:1px;stroke-linecap:butt;stroke-linejoin:miter;stroke-opacity:1" d="M 675.887,11.0355 707.546,4 z" id="boundary" inkscape:connector-curvature="0" />
	<path style="fill:none;stroke:#000000;stroke-width:1px;stroke-linecap:butt;stroke-linejoin:miter;stroke-opacity:1" d="M 707.546,4 740.965,5.75887 z" id="boundary" inkscape:connector-curvature="0" />
	<path style="fill:none;stroke:#000000;stroke-width:1px;stroke-linecap:butt;stroke-linejoin:miter;stroke-opacity:1" d="M 740.965,5.75887 774.383,19.8298 z" id="boundary" inkscape:connector-curvature="0" />
	<path style="fill:none;stroke:#000000;stroke-width:1px;stroke-linecap:butt;stroke-linejoin:miter;stroke-opacity:1" d="M 774.383,19.8298 804.284,39.1773 z" id="boundary" inkscape:connector-curvature="0" />
	<path style="fill:none;stroke:#000000;stroke-width:1px;stroke-linecap:butt;stroke-linejoin:miter;stroke-opacity:1" d="M 804.284,39.1773 835.943,69.078 z" id="boundary" inkscape:connector-curvature="0" />
	<path style="fill:none;stroke:#000000;stroke-width:1px;stroke-linecap:butt;stroke-linejoin:miter;stroke-opacity:1" d="M 835.943,69.078 867.603,106.014 z" id="boundary" inkscape:connector-curvature="0" />
	<path style="fill:none;stroke:#000000;stroke-width:1px;stroke-linecap:butt;stroke-linejoin:miter;stroke-opacity:1" d="M 867.603,106.014 886.95,141.191 z" id="boundary" inkscape:connector-curvature="0" />
	<path style="fill:none;stroke:#000000;stroke-width:1px;stroke-linecap:butt;stroke-linejoin:miter;stroke-opacity:1" d="M 886.95,141.191 902.78,181.645 z" id="boundary" inkscape:connector-curvature="0" />
	<path style="fill:none;stroke:#000000;stroke-width:1px;stroke-linecap:butt;stroke-linejoin:miter;stroke-opacity:1" d="M 902.78,181.645 916.851,216.823 z" id="boundary" inkscape:connector-curvature="0" />
	<path style="fill:none;stroke:#000000;stroke-width:1px;stroke-linecap:butt;stroke-linejoin:miter;stroke-opacity:1" d="M 916.851,216.823 929.163,252 z" id="boundary" inkscape:connector-curvature="0" />
	<path style="fill:none;stroke:#000000;stroke-width:1px;stroke-linecap:butt;stroke-linejoin:miter;stroke-opacity:1" d="M 929.163,252 939.716,294.213 z" id="boundary" inkscape:connector-curvature="0" />
	<path style="fill:none;stroke:#000000;stroke-width:1px;stroke-linecap:butt;stroke-linejoin:miter;stroke-opacity:1" d="M 939.716,294.213 952.028,327.631 z" id="boundary" inkscape:connector-curvature="0" />
	<path style="fill:none;stroke:#000000;stroke-width:1px;stroke-linecap:butt;stroke-linejoin:miter;stroke-opacity:1" d="M 952.028,327.631 957.305,368.085 z" id="boundary" inkscape:connector-curvature="0" />
	<path style="fill:none;stroke:#000000;stroke-width:1px;stroke-linecap:butt;stroke-linejoin:miter;stroke-opacity:1" d="M 957.305,368.085 966.099,401.504 z" id="boundary" inkscape:connector-curvature="0" />
	<path style="fill:none;stroke:#000000;stroke-width:1px;stroke-linecap:butt;stroke-linejoin:miter;stroke-opacity:1" d="M 966.099,401.504 969.617,461.305 z" id="boundary" inkscape:connector-curvature="0" />
	<path style="fill:none;stroke:#000000;stroke-width:1px;stroke-linecap:butt;stroke-linejoin:miter;stroke-opacity:1" d="M 969.617,461.305 962.582,521.106 z" id="boundary" inkscape:connector-curvature="0" />
	<path style="fill:none;stroke:#000000;stroke-width:1px;stroke-linecap:butt;stroke-linejoin:miter;stroke-opacity:1" d="M 230.894,988.965 199.234,996 z" id="boundary" inkscape:connector-curvature="0" />
	<path style="fill:none;stroke:#000000;stroke-width:1px;stroke-linecap:butt;stroke-linejoin:miter;stroke-opacity:1" d="M 199.234,996 165.816,996 z" id="boundary" inkscape:connector-curvature="0" />
	<path style="fill:none;stroke:#000000;stroke-width:1px;stroke-linecap:butt;stroke-linejoin:miter;stroke-opacity:1" d="M 165.816,996 132.397,981.929 z" id="boundary" inkscape:connector-curvature="0" />
	<path style="fill:none;stroke:#000000;stroke-width:1px;stroke-linecap:butt;stroke-linejoin:miter;stroke-opacity:1" d="M 132.397,981.929 100.738,960.823 z" id="boundary" inkscape:connector-curvature="0" />
	<path style="fill:none;stroke:#000000;stroke-width:1px;stroke-linecap:butt;stroke-linejoin:miter;stroke-opacity:1" d="M 230.894,988.965 262.553,960.823 z" id="boundary" inkscape:connector-curvature="0" />
	<path style="fill:none;stroke:#000000;stroke-width:1px;stroke-linecap:butt;stroke-linejoin:miter;stroke-opacity:1" d="M 262.553,960.823 283.66,923.887 z" id="boundary" inkscape:connector-curvature="0" />
	<path style="fill:none;stroke:#000000;stroke-width:1px;stroke-linecap:butt;stroke-linejoin:miter;stroke-opacity:1" d="M 283.66,923.887 290.695,883.433 z" id="boundary" inkscape:connector-curvature="0" />
	<path style="fill:none;stroke:#000000;stroke-width:1px;stroke-linecap:butt;stroke-linejoin:miter;stroke-opacity:1" d="M 290.695,883.433 292.454,837.702 z" id="boundary" inkscape:connector-curvature="0" />
	<path style="fill:none;stroke:#000000;stroke-width:1px;stroke-linecap:butt;stroke-linejoin:miter;stroke-opacity:1" d="M 292.454,837.702 294.213,799.007 z" id="boundary" inkscape:connector-curvature="0" />
	<path style="fill:none;stroke:#000000;stroke-width:1px;stroke-linecap:butt;stroke-linejoin:miter;stroke-opacity:1" d="M 294.213,799.007 301.248,753.277 z" id="boundary" inkscape:connector-curvature="0" />
	<path style="fill:none;stroke:#000000;stroke-width:1px;stroke-linecap:butt;stroke-linejoin:miter;stroke-opacity:1" d="M 301.248,753.277 306.525,711.064 z" id="boundary" inkscape:connector-curvature="0" />
	<path style="fill:none;stroke:#000000;stroke-width:1px;stroke-linecap:butt;stroke-linejoin:miter;stroke-opacity:1" d="M 306.525,711.064 313.56,677.645 z" id="boundary" inkscape:connector-curvature="0" />
	<path style="fill:none;stroke:#000000;stroke-width:1px;stroke-linecap:butt;stroke-linejoin:miter;stroke-opacity:1" d="M 313.56,677.645 322.355,635.433 z" id="boundary" inkscape:connector-curvature="0" />
	<path style="fill:none;stroke:#000000;stroke-width:1px;stroke-linecap:butt;stroke-linejoin:miter;stroke-opacity:1" d="M 322.355,635.433 336.426,600.255 z" id="boundary" inkscape:connector-curvature="0" />
	<path style="fill:none;stroke:#000000;stroke-width:1px;stroke-linecap:butt;stroke-linejoin:miter;stroke-opacity:1" d="M 336.426,600.255 350.496,566.837 z" id="boundary" inkscape:connector-curvature="0" />
	<path style="fill:none;stroke:#000000;stroke-width:1px;stroke-linecap:butt;stroke-linejoin:miter;stroke-opacity:1" d="M 350.496,566.837 371.603,528.142 z" id="boundary" inkscape:connector-curvature="0" />
	<path style="fill:none;stroke:#000000;stroke-width:1px;stroke-linecap:butt;stroke-linejoin:miter;stroke-opacity:1" d="M 371.603,528.142 394.468,492.965 z" id="boundary" inkscape:connector-curvature="0" />
	<path style="fill:none;stroke:#000000;stroke-width:1px;stroke-linecap:butt;stroke-linejoin:miter;stroke-opacity:1" d="M 394.468,492.965 413.816,456.028 z" id="boundary" inkscape:connector-curvature="0" />
	<path style="fill:none;stroke:#000000;stroke-width:1px;stroke-linecap:butt;stroke-linejoin:miter;stroke-opacity:1" d="M 413.816,456.028 427.887,420.851 z" id="boundary" inkscape:connector-curvature="0" />
	<path style="fill:none;stroke:#000000;stroke-width:1px;stroke-linecap:butt;stroke-linejoin:miter;stroke-opacity:1" d="M 100.738,960.823 70.8369,922.128 z" id="boundary" inkscape:connector-curvature="0" />
	<path style="fill:none;stroke:#000000;stroke-width:1px;stroke-linecap:butt;stroke-linejoin:miter;stroke-opacity:1" d="M 70.8369,922.128 47.9716,888.709 z" id="boundary" inkscape:connector-curvature="0" />
	<path style="fill:none;stroke:#000000;stroke-width:1px;stroke-linecap:butt;stroke-linejoin:miter;stroke-opacity:1" d="M 47.9716,888.709 32.1418,851.773 z" id="boundary" inkscape:connector-curvature="0" />
	<path style="fill:none;stroke:#000000;stroke-width:1px;stroke-linecap:butt;stroke-linejoin:miter;stroke-opacity:1" d="M 32.1418,851.773 21.5887,814.837 z" id="boundary" inkscape:connector-curvature="0" />
	<path style="fill:none;stroke:#000000;stroke-width:1px;stroke-linecap:butt;stroke-linejoin:miter;stroke-opacity:1" d="M 21.5887,814.837 14.5532,774.383 z" id="boundary" inkscape:connector-curvature="0" />
	<path style="fill:none;stroke:#000000;stroke-width:1px;stroke-linecap:butt;stroke-linejoin:miter;stroke-opacity:1" d="M 14.5532,774.383 9.2766,732.17 z" id="boundary" inkscape:connector-curvature="0" />
	<path style="fill:none;stroke:#000000;stroke-width:1px;stroke-linecap:butt;stroke-linejoin:miter;stroke-opacity:1" d="M 9.2766,732.17 5.75887,693.475 z" id="boundary" inkscape:connector-curvature="0" />
	<path style="fill:none;stroke:#000000;stroke-width:1px;stroke-linecap:butt;stroke-linejoin:miter;stroke-opacity:1" d="M 5.75887,693.475 4,651.262 z" id="boundary" inkscape:connector-curvature="0" />
	<path style="fill:none;stroke:#000000;stroke-width:1px;stroke-linecap:butt;stroke-linejoin:miter;stroke-opacity:1" d="M 4,651.262 4,603.773 z" id="boundary" inkscape:connector-curvature="0" />
	<path style="fill:none;stroke:#000000;stroke-width:1px;stroke-linecap:butt;stroke-linejoin:miter;stroke-opacity:1" d="M 4,603.773 7.51773,565.078 z" id="boundary" inkscape:connector-curvature="0" />
	<path style="fill:none;stroke:#000000;stroke-width:1px;stroke-linecap:butt;stroke-linejoin:miter;stroke-opacity:1" d="M 7.51773,565.078 14.5532,524.624 z" id="boundary" inkscape:connector-curvature="0" />
	<path style="fill:none;stroke:#000000;stroke-width:1px;stroke-linecap:butt;stroke-linejoin:miter;stroke-opacity:1" d="M 14.5532,524.624 19.8298,485.929 z" id="boundary" inkscape:connector-curvature="0" />
	<path style="fill:none;stroke:#000000;stroke-width:1px;stroke-linecap:butt;stroke-linejoin:miter;stroke-opacity:1" d="M 19.8298,485.929 32.1418,445.475 z" id="boundary" inkscape:connector-curvature="0" />
	<path style="fill:none;stroke:#000000;stroke-width:1px;stroke-linecap:butt;stroke-linejoin:miter;stroke-opacity:1" d="M 32.1418,445.475 46.2128,410.298 z" id="boundary" inkscape:connector-curvature="0" />
	<path style="fill:none;stroke:#000000;stroke-width:1px;stroke-linecap:butt;stroke-linejoin:miter;stroke-opacity:1" d="M 46.2128,410.298 65.5603,375.121 z" id="boundary" inkscape:connector-curvature="0" />
	<path style="fill:none;stroke:#000000;stroke-width:1px;stroke-linecap:butt;stroke-linejoin:miter;stroke-opacity:1" d="M 65.5603,375.121 91.9433,338.184 z" id="boundary" inkscape:connector-curvature="0" />
	<path style="fill:none;stroke:#000000;stroke-width:1px;stroke-linecap:butt;stroke-linejoin:miter;stroke-opacity:1" d="M 91.9433,338.184 123.603,304.766 z" id="boundary" inkscape:connector-curvature="0" />
	<path style="fill:none;stroke:#000000;stroke-width:1px;stroke-linecap:butt;stroke-linejoin:miter;stroke-opacity:1" d="M 123.603,304.766 157.021,273.106 z" id="boundary" inkscape:connector-curvature="0" />
	<path style="fill:none;stroke:#000000;stroke-width:1px;stroke-linecap:butt;stroke-linejoin:miter;stroke-opacity:1" d="M 157.021,273.106 188.681,244.965 z" id="boundary" inkscape:connector-curvature="0" />
	<path style="fill:none;stroke:#000000;stroke-width:1px;stroke-linecap:butt;stroke-linejoin:miter;stroke-opacity:1" d="M 188.681,244.965 222.099,225.617 z" id="boundary" inkscape:connector-curvature="0" />
	<path style="fill:none;stroke:#000000;stroke-width:1px;stroke-linecap:butt;stroke-linejoin:miter;stroke-opacity:1" d="M 222.099,225.617 257.277,211.546 z" id="boundary" inkscape:connector-curvature="0" />
	<path style="fill:none;stroke:#000000;stroke-width:1px;stroke-linecap:butt;stroke-linejoin:miter;stroke-opacity:1" d="M 257.277,211.546 288.936,200.993 z" id="boundary" inkscape:connector-curvature="0" />
	<path style="fill:none;stroke:#000000;stroke-width:1px;stroke-linecap:butt;stroke-linejoin:miter;stroke-opacity:1" d="M 288.936,200.993 322.355,197.475 z" id="boundary" inkscape:connector-curvature="0" />
	<path style="fill:none;stroke:#000000;stroke-width:1px;stroke-linecap:butt;stroke-linejoin:miter;stroke-opacity:1" d="M 322.355,197.475 357.532,211.546 z" id="boundary" inkscape:connector-curvature="0" />
	<path style="fill:none;stroke:#000000;stroke-width:1px;stroke-linecap:butt;stroke-linejoin:miter;stroke-opacity:1" d="M 357.532,211.546 390.95,232.652 z" id="boundary" inkscape:connector-curvature="0" />
	<path style="fill:none;stroke:#000000;stroke-width:1px;stroke-linecap:butt;stroke-linejoin:miter;stroke-opacity:1" d="M 390.95,232.652 415.574,271.348 z" id="boundary" inkscape:connector-curvature="0" />
	<path style="fill:none;stroke:#000000;stroke-width:1px;stroke-linecap:butt;stroke-linejoin:miter;stroke-opacity:1" d="M 415.574,271.348 427.887,306.525 z" id="boundary" inkscape:connector-curvature="0" />
	<path style="fill:none;stroke:#000000;stroke-width:1px;stroke-linecap:butt;stroke-linejoin:miter;stroke-opacity:1" d="M 427.887,420.851 434.922,364.567 z" id="boundary" inkscape:connector-curvature="0" />
	<path style="fill:none;stroke:#000000;stroke-width:1px;stroke-linecap:butt;stroke-linejoin:miter;stroke-opacity:1" d="M 434.922,364.567 427.887,306.525 z" id="boundary" inkscape:connector-curvature="0" />
	<circle cx="427.887" cy="420.851" r="4" fill="#0" id="circle0"/>
	<circle cx="434.922" cy="364.567" r="4" fill="#0" id="circle1"/>
	<circle cx="427.887" cy="306.525" r="4" fill="#0" id="circle2"/>
	<circle cx="415.574" cy="271.348" r="4" fill="#0" id="circle3"/>
	<circle cx="390.95" cy="232.652" r="4" fill="#0" id="circle4"/>
	<circle cx="357.532" cy="211.546" r="4" fill="#0" id="circle5"/>
	<circle cx="322.355" cy="197.475" r="4" fill="#0" id="circle6"/>
	<circle cx="288.936" cy="200.993" r="4" fill="#0" id="circle7"/>
	<circle cx="257.277" cy="211.546" r="4" fill="#0" id="circle8"/>
	<circle cx="222.099" cy="225.617" r="4" fill="#0" id="circle9"/>
	<circle cx="188.681" cy="244.965" r="4" fill="#0" id="circle10"/>
	<circle cx="157.021" cy="273.106" r="4" fill="#0" id="circle11"/>
	<circle cx="123.603" cy="304.766" r="4" fill="#0" id="circle12"/>
	<circle cx="91.9433" cy="338.184" r="4" fill="#0" id="circle13"/>
	<circle cx="65.5603" cy="375.121" r="4" fill="#0" id="circle14"/>
	<circle cx="46.2128" cy="410.298" r="4" fill="#0" id="circle15"/>
	<circle cx="32.1418" cy="445.475" r="4" fill="#0" id="circle16"/>
	<circle cx="19.8298" cy="485.929" r="4" fill="#0" id="circle17"/>
	<circle cx="14.5532" cy="524.624" r="4" fill="#0" id="circle18"/>
	<circle cx="7.51773" cy="565.078" r="4" fill="#0" id="circle19"/>
	<circle cx="4" cy="603.773" r="4" fill="#0" id="circle20"/>
	<circle cx="4" cy="651.262" r="4" fill="#0" id="circle21"/>
	<circle cx="5.75887" cy="693.475" r="4" fill="#0" id="circle22"/>
	<circle cx="9.2766" cy="732.17" r="4" fill="#0" id="circle23"/>
	<circle cx="14.5532" cy="774.383" r="4" fill="#0" id="circle24"/>
	<circle cx="21.5887" cy="814.837" r="4" fill="#0" id="circle25"/>
	<circle cx="32.1418" cy="851.773" r="4" fill="#0" id="circle26"/>
	<circle cx="47.9716" cy="888.709" r="4" fill="#0" id="circle27"/>
	<circle cx="70.8369" cy="922.128" r="4" fill="#0" id="circle28"/>
	<circle cx="100.738" cy="960.823" r="4" fill="#0" id="circle29"/>
	<circle cx="132.397" cy="981.929" r="4" fill="#0" id="circle30"/>
	<circle cx="165.816" cy="996" r="4" fill="#0" id="circle31"/>
	<circle cx="199.234" cy="996" r="4" fill="#0" id="circle32"/>
	<circle cx="230.894" cy="988.965" r="4" fill="#0" id="circle33"/>
	<circle cx="262.553" cy="960.823" r="4" fill="#0" id="circle34"/>
	<circle cx="283.66" cy="923.887" r="4" fill="#0" id="circle35"/>
	<circle cx="290.695" cy="883.433" r="4" fill="#0" id="circle36"/>
	<circle cx="292.454" cy="837.702" r="4" fill="#0" id="circle37"/>
	<circle cx="294.213" cy="799.007" r="4" fill="#0" id="circle38"/>
	<circle cx="301.248" cy="753.277" r="4" fill="#0" id="circle39"/>
	<circle cx="306.525" cy="711.064" r="4" fill="#0" id="circle40"/>
	<circle cx="313.56" cy="677.645" r="4" fill="#0" id="circle41"/>
	<circle cx="322.355" cy="635.433" r="4" fill="#0" id="circle42"/>
	<circle cx="336.426" cy="600.255" r="4" fill="#0" id="circle43"/>
	<circle cx="350.496" cy="566.837" r="4" fill="#0" id="circle44"/>
	<circle cx="371.603" cy="528.142" r="4" fill="#0" id="circle45"/>
	<circle cx="394.468" cy="492.965" r="4" fill="#0" id="circle46"/>
	<circle cx="413.816" cy="456.028" r="4" fill="#0" id="circle47"/>
	<circle cx="637.191" cy="450.752" r="4" fill="#0" id="circle48"/>
	<circle cx="642.468" cy="390.95" r="4" fill="#0" id="circle49"/>
	<circle cx="638.95" cy="336.426" r="4" fill="#0" id="circle50"/>
	<circle cx="635.433" cy="290.695" r="4" fill="#0" id="circle51"/>
	<circle cx="630.156" cy="252" r="4" fill="#0" id="circle52"/>
	<circle cx="623.121" cy="209.787" r="4" fill="#0" id="circle53"/>
	<circle cx="616.085" cy="176.369" r="4" fill="#0" id="circle54"/>
	<circle cx="609.05" cy="142.95" r="4" fill="#0" id="circle55"/>
	<circle cx="607.291" cy="102.496" r="4" fill="#0" id="circle56"/>
	<circle cx="617.844" cy="62.0426" r="4" fill="#0" id="circle57"/>
	<circle cx="642.468" cy="26.8652" r="4" fill="#0" id="circle58"/>
	<circle cx="675.887" cy="11.0355" r="4" fill="#0" id="circle59"/>
	<circle cx="707.546" cy="4" r="4" fill="#0" id="circle60"/>
	<circle cx="740.965" cy="5.75887" r="4" fill="#0" id="circle61"/>
	<circle cx="774.383" cy="19.8298" r="4" fill="#0" id="circle62"/>
	<circle cx="804.284" cy="39.1773" r="4" fill="#0" id="circle63"/>
	<circle cx="835.943" cy="69.078" r="4" fill="#0" id="circle64"/>
	<circle cx="867.603" cy="106.014" r="4" fill="#0" id="circle65"/>
	<circle cx="886.95" cy="141.191" r="4" fill="#0" id="circle66"/>
	<circle cx="902.78" cy="181.645" r="4" fill="#0" id="circle67"/>
	<circle cx="916.851" cy="216.823" r="4" fill="#0" id="circle68"/>
	<circle cx="929.163" cy="252" r="4" fill="#0" id="circle69"/>
	<circle cx="939.716" cy="294.213" r="4" fill="#0" id="circle70"/>
	<circle cx="952.028" cy="327.631" r="4" fill="#0" id="circle71"/>
	<circle cx="957.305" cy="368.085" r="4" fill="#0" id="circle72"/>
	<circle cx="966.099" cy="401.504" r="4" fill="#0" id="circle73"/>
	<circle cx="969.617" cy="461.305" r="4" fill="#0" id="circle74"/>
	<circle cx="962.582" cy="521.106" r="4" fill="#0" id="circle75"/>
	<circle cx="957.305" cy="556.284" r="4" fill="#0" id="circle76"/>
	<circle cx="941.475" cy="594.979" r="4" fill="#0" id="circle77"/>
	<circle cx="927.404" cy="631.915" r="4" fill="#0" id="circle78"/>
	<circle cx="906.298" cy="667.092" r="4" fill="#0" id="circle79"/>
	<circle cx="883.433" cy="704.028" r="4" fill="#0" id="circle80"/>
	<circle cx="855.291" cy="735.688" r="4" fill="#0" id="circle81"/>
	<circle cx="825.39" cy="770.865" r="4" fill="#0" id="circle82"/>
	<circle cx="791.972" cy="799.007" r="4" fill="#0" id="circle83"/>
	<circle cx="762.071" cy="813.078" r="4" fill="#0" id="circle84"/>
	<circle cx="725.135" cy="816.596" r="4" fill="#0" id="circle85"/>
	<circle cx="695.234" cy="811.319" r="4" fill="#0" id="circle86"/>
	<circle cx="663.574" cy="793.73" r="4" fill="#0" id="circle87"/>
	<circle cx="630.156" cy="756.794" r="4" fill="#0" id="circle88"/>
	<circle cx="614.326" cy="723.376" r="4" fill="#0" id="circle89"/>
	<circle cx="600.255" cy="688.199" r="4" fill="#0" id="circle90"/>
	<circle cx="594.979" cy="647.745" r="4" fill="#0" id="circle91"/>
	<circle cx="598.496" cy="603.773" r="4" fill="#0" id="circle92"/>
	<circle cx="605.532" cy="568.596" r="4" fill="#0" id="circle93"/>
	<circle cx="614.326" cy="529.901" r="4" fill="#0" id="circle94"/>
	<circle cx="628.397" cy="496.482" r="4" fill="#0" id="circle95"/>
	</g>
</svg>